<svg version="1.1" id="Layer_1" xmlns="http://www.w3.org/2000/svg" xmlns:xlink="http://www.w3.org/1999/xlink" x="0px" y="0px"
	 width="100%" viewBox="0 0 272 288" enable-background="new 0 0 272 288" xml:space="preserve">
<path fill="#000000" opacity="1.000000" stroke="none" 
	d="
M62.878876,126.931564 
	C66.454010,117.075447 67.029198,107.819572 61.525906,98.735420 
	C59.555656,95.483170 58.650951,91.681366 57.675323,87.962402 
	C55.547047,79.849701 56.612484,72.806786 63.799023,67.509521 
	C64.413361,67.056686 64.748367,66.224892 65.486824,65.182976 
	C59.039536,60.738857 52.775185,56.428169 46.520954,52.102844 
	C45.429909,51.348293 43.976093,50.762310 43.377319,49.708019 
	C38.408203,40.958622 34.777164,31.613979 30.526417,21.641237 
	C36.237476,22.670527 39.930496,25.668966 43.998238,27.689409 
	C57.264832,34.278934 70.390526,41.154430 83.512924,48.029682 
	C85.640289,49.144279 87.252518,49.306713 89.475708,48.042301 
	C122.040878,29.521244 154.685211,29.408953 187.245209,48.050274 
	C189.478577,49.328926 191.019104,49.116646 193.157822,48.007637 
	C209.566299,39.499126 226.044296,31.124678 242.509674,22.726147 
	C243.216248,22.365746 244.010544,22.177353 245.316330,21.711981 
	C241.195312,42.148178 230.024780,56.409874 211.666077,64.149132 
	C212.267044,67.413834 213.912628,68.475060 215.244476,69.608833 
	C220.162918,73.795792 220.895599,79.109978 219.823853,85.025589 
	C218.838715,90.463051 217.440491,95.834587 214.695480,100.610313 
	C210.557419,107.809639 210.626450,115.162712 212.815201,122.789726 
	C215.253571,131.286530 218.131500,139.656433 222.206360,147.489441 
	C226.175415,155.119110 226.104050,162.701202 223.794556,170.688889 
	C217.693359,191.790680 206.831314,210.431763 194.201187,228.131592 
	C179.791336,248.325546 162.828308,266.052460 142.757553,280.765320 
	C139.506943,283.148163 137.244080,283.141724 134.027130,280.704865 
	C99.685738,254.691101 73.911499,222.015350 57.070797,182.341293 
	C54.725708,176.816635 53.030746,171.053909 51.890438,165.164749 
	C50.490616,157.935379 52.736904,151.328079 55.891071,144.979797 
	C58.717651,139.290863 60.711742,133.295700 62.878876,126.931564 
M166.224731,226.758698 
	C169.753784,220.149002 173.272095,213.533539 176.813873,206.930649 
	C188.698959,184.773529 200.585037,162.616943 212.495316,140.473373 
	C213.559830,138.494217 214.374191,136.458359 213.536301,134.275085 
	C211.084732,127.887039 209.258881,121.324707 208.106384,113.592148 
	C184.798981,154.929596 162.029495,195.313004 138.521530,237.006134 
	C114.959686,195.304520 92.128014,154.895233 69.296341,114.485939 
	C68.346901,120.133682 66.767250,125.087318 64.845749,129.846664 
	C62.854271,134.779358 63.581669,138.850693 66.090424,143.497284 
	C86.815514,181.883301 107.290665,220.404266 127.851425,258.879059 
	C131.236053,265.212646 134.669144,271.520386 138.500000,278.618561 
	C147.993256,260.853882 156.930420,244.129791 166.224731,226.758698 
M84.383118,129.340012 
	C79.499580,130.050522 83.139580,132.621979 83.748230,133.710892 
	C97.475533,158.269852 111.345634,182.749023 125.204163,207.234543 
	C129.492493,214.811264 133.825745,222.362534 138.535889,230.622467 
	C157.734650,196.586151 176.477722,163.357666 195.622742,129.416611 
	C192.072403,129.416611 189.589844,129.564072 187.130920,129.385727 
	C182.106247,129.021317 179.121567,130.974152 176.538864,135.607590 
	C165.026123,156.261856 153.024963,176.644073 141.165756,197.104553 
	C140.467239,198.309692 140.196640,200.037033 138.285126,200.186584 
	C136.588211,199.178162 135.950943,197.388565 135.049637,195.830383 
	C123.626228,176.081573 112.011497,156.437958 100.969994,136.477417 
	C98.009827,131.126099 94.292534,129.092911 88.645950,129.366623 
	C87.483101,129.422989 86.313972,129.349533 84.383118,129.340012 
M152.671341,171.185486 
	C160.623749,157.284088 168.576141,143.382675 176.720078,129.146484 
	C171.178925,126.955032 166.433426,125.375099 161.963882,123.222206 
	C157.965607,121.296310 156.017639,121.969383 154.143082,126.225990 
	C149.479095,136.816757 144.223099,147.146820 139.226929,157.535599 
	C136.585510,156.883224 136.350494,154.844299 135.603149,153.281448 
	C131.082199,143.827377 126.635979,134.337570 122.117599,124.882263 
	C121.377106,123.332695 120.964813,121.017326 118.335999,122.027588 
	C112.489777,124.274330 106.680206,126.616478 100.182045,129.186127 
	C112.932159,151.299881 125.336647,172.814194 137.672165,194.208878 
	C138.678650,193.872955 139.139603,193.865219 139.265381,193.655975 
	C143.632858,186.390228 147.968735,179.105484 152.671341,171.185486 
M186.308701,60.999203 
	C185.000229,61.251526 183.699539,61.667995 182.382065,61.730412 
	C171.028610,62.268295 163.549026,67.455444 158.981949,78.305763 
	C154.962601,87.854805 149.118942,96.635956 144.080917,105.756218 
	C144.305359,105.947380 144.529800,106.138542 144.754242,106.329704 
	C170.446228,88.979195 196.138199,71.628693 221.830170,54.278187 
	C221.653458,53.801697 221.476761,53.325207 221.300049,52.848717 
	C209.904877,55.496124 198.509720,58.143532 186.308701,60.999203 
M116.685143,95.745056 
	C121.512154,99.129059 126.273293,102.621071 132.471741,105.690430 
	C128.401428,96.067810 122.451767,88.518776 118.795959,79.857590 
	C114.222961,69.023422 107.336067,61.920052 94.850632,61.784916 
	C93.069611,61.765636 91.304893,60.930870 89.519257,60.533661 
	C77.650414,57.893497 65.777939,55.269718 53.906643,52.640610 
	C53.826672,52.838814 53.746700,53.037018 53.666729,53.235222 
	C74.465843,67.281288 95.264954,81.327347 116.685143,95.745056 
M122.680923,255.731842 
	C113.419083,238.389542 104.157242,221.047226 94.324913,202.636719 
	C92.217903,207.367477 91.028015,211.028992 89.076538,214.225555 
	C84.209938,222.197235 85.908768,228.384003 91.888710,235.430313 
	C104.351547,250.115616 117.527344,263.894409 133.854294,276.525574 
	C129.791092,268.973785 126.405945,262.682190 122.680923,255.731842 
M172.939590,249.440338 
	C178.898010,242.702240 184.763336,235.886566 190.072556,228.615646 
	C191.019867,227.318314 192.602158,226.172455 191.817520,224.236755 
	C189.041809,217.388885 186.208664,210.564301 182.806793,202.295578 
	C169.604446,227.080933 157.167587,250.429214 144.730728,273.777496 
	C145.071671,274.021118 145.412613,274.264740 145.753555,274.508362 
	C155.383636,267.137665 164.104126,258.751465 172.939590,249.440338 
M159.212372,71.988739 
	C159.942810,68.190125 157.862595,69.523491 156.184875,70.379250 
	C151.592560,72.721611 146.968094,75.012505 142.478683,77.540970 
	C139.552948,79.188759 137.126617,79.100105 134.138138,77.367157 
	C128.483200,74.087990 122.523399,71.334549 116.690277,68.362663 
	C116.504601,68.616127 116.318932,68.869591 116.133263,69.123047 
	C123.377281,82.101624 130.621307,95.080193 138.436905,109.082809 
	C145.608017,96.280594 152.245041,84.431854 159.212372,71.988739 
M148.738388,63.261612 
	C150.269806,61.504749 151.776871,59.725849 153.340668,57.998299 
	C154.501053,56.716415 154.943329,55.390545 153.554779,54.067902 
	C148.400833,49.158577 143.205551,44.292629 137.816269,39.212898 
	C132.737869,43.421524 128.451462,49.197124 123.393524,54.209366 
	C122.409630,55.184380 122.401497,56.315903 123.267776,57.347065 
	C128.146637,63.154533 133.054138,68.937950 138.383728,75.240242 
	C142.022217,71.044594 145.157944,67.428711 148.738388,63.261612 
M186.871597,204.629547 
	C189.321671,210.317276 191.771729,216.004990 194.671967,222.737747 
	C199.430801,214.838608 203.617050,207.907501 207.780121,200.962509 
	C208.482269,199.791153 208.932663,198.503372 208.267365,197.173492 
	C204.742798,190.128220 201.186310,183.098892 197.240936,175.270447 
	C193.507187,182.188690 190.421829,188.219208 187.028534,194.071182 
	C185.099457,197.398010 184.633041,200.538742 186.871597,204.629547 
M132.915924,140.644684 
	C134.858643,143.948135 135.584839,147.956558 138.793213,151.225159 
	C143.882187,140.687317 149.212189,130.842651 153.284042,120.625656 
	C143.146088,113.508591 133.460754,113.186440 123.504913,120.837677 
	C126.498543,127.159668 129.533432,133.568771 132.915924,140.644684 
M76.716270,181.237762 
	C74.331612,185.985397 71.949295,190.734192 69.560951,195.479965 
	C68.810852,196.970459 67.957428,198.423569 68.877388,200.172791 
	C72.723801,207.486435 77.028450,214.497772 82.560013,221.682861 
	C85.755859,214.370163 88.709969,207.747772 91.529152,201.068436 
	C92.283028,199.282333 91.658562,197.492661 90.740074,195.820892 
	C89.140442,192.909348 87.763733,189.862076 85.995491,187.059799 
	C83.861595,183.678040 82.971252,179.485168 79.837807,176.725525 
	C78.114922,177.781509 77.748009,179.303253 76.716270,181.237762 
M224.605621,49.116257 
	C227.431335,48.352535 230.893677,48.629097 232.486313,45.567734 
	C235.423782,39.921387 237.980240,34.087608 240.200806,27.266575 
	C219.854614,37.758251 200.289993,47.846901 180.725372,57.935551 
	C180.851883,58.239269 180.978378,58.542992 181.104874,58.846714 
	C195.337631,55.657330 209.570374,52.467945 224.605621,49.116257 
M43.751713,30.825447 
	C41.594112,29.806686 39.436512,28.787924 36.867844,27.575069 
	C37.093884,28.812119 37.096153,29.331165 37.282677,29.772305 
	C44.805584,47.564278 44.817894,47.516048 63.724648,51.581738 
	C74.495590,53.897911 85.226852,56.398613 95.975983,58.816227 
	C96.047325,58.553417 96.118668,58.290611 96.190010,58.027805 
	C78.923851,49.077881 61.657684,40.127960 43.751713,30.825447 
M76.771217,169.622620 
	C73.983383,164.865433 72.086662,159.582184 68.196053,154.443314 
	C65.016487,162.326889 58.456596,168.351410 58.427761,176.062210 
	C58.404068,182.396912 62.395767,188.634720 66.668076,195.019699 
	C70.486214,187.250107 73.842644,180.437500 77.178276,173.614700 
	C77.718346,172.510025 77.718979,171.369553 76.771217,169.622620 
M200.137268,174.510712 
	C203.439606,181.072037 206.741943,187.633377 210.386780,194.875244 
	C214.389648,188.841949 216.527466,183.136536 218.530975,177.372162 
	C218.978729,176.083954 219.047256,174.700211 218.422546,173.477829 
	C215.356842,167.479004 212.224899,161.514023 208.520737,154.391891 
	C205.074112,161.521912 199.981339,166.484055 200.137268,174.510712 
M202.688553,98.421898 
	C199.525818,98.409050 196.362183,98.343376 193.200546,98.396263 
	C188.921936,98.467834 184.972809,104.240356 187.124542,107.850624 
	C190.322632,113.216492 194.129745,118.219383 198.195007,124.128792 
	C203.687729,115.458656 208.801422,107.710289 212.091690,98.741501 
	C208.814880,97.699562 206.162048,98.640823 202.688553,98.421898 
M76.744186,98.764740 
	C73.930046,98.580276 71.118164,98.330551 68.301018,98.233330 
	C66.279846,98.163574 64.872307,99.031120 65.815308,101.256149 
	C69.159012,109.145622 73.815208,116.274315 78.744507,124.198372 
	C82.333153,118.983940 85.093834,114.251968 88.582047,110.136688 
	C91.274384,106.960342 90.008881,104.606499 88.690834,101.625633 
	C87.255592,98.379715 84.868767,98.492210 82.100685,98.794708 
	C80.625336,98.955940 79.117844,98.823051 76.744186,98.764740 
M202.998428,95.568016 
	C204.983780,95.468117 206.970703,95.268044 208.953979,95.299431 
	C210.596237,95.325432 212.244690,95.835663 213.666901,94.504723 
	C216.049698,92.274872 217.854034,81.041832 216.001755,76.979332 
	C207.622437,81.268303 199.258377,85.541733 190.903763,89.833572 
	C189.543884,90.532166 189.121994,91.691437 189.412262,93.176064 
	C189.763962,94.975021 190.955368,95.608231 192.638763,95.607094 
	C195.792419,95.604973 198.946060,95.597771 202.998428,95.568016 
M67.986809,80.599159 
	C65.472176,79.581772 63.299068,77.684830 60.035877,77.226814 
	C59.478149,82.802307 60.140167,87.777313 62.089294,92.596062 
	C62.757931,94.249107 63.892788,95.322334 65.824844,95.346085 
	C71.776665,95.419250 77.728012,95.531250 83.679726,95.614296 
	C85.392014,95.638191 87.074409,95.546082 87.590698,93.426361 
	C88.136414,91.185837 86.842651,90.121452 85.041412,89.230354 
	C79.551582,86.514442 74.101532,83.718140 67.986809,80.599159 
M173.980621,44.617760 
	C172.178329,43.957565 170.243225,42.363216 168.556198,44.489532 
	C165.609970,48.202911 161.877655,51.345470 159.745163,55.981602 
	C162.377625,57.948547 163.575150,62.724926 167.476944,61.161449 
	C173.855713,58.605431 179.795166,54.953133 186.517487,51.452103 
	C182.441299,48.406132 178.443298,46.847279 173.980621,44.617760 
M101.007744,45.539856 
	C97.959091,47.541485 93.951302,48.108776 91.369461,51.848164 
	C96.074539,54.290401 100.430489,56.602612 104.832024,58.824520 
	C112.040771,62.463516 112.278496,62.377563 117.250648,55.147751 
	C115.009605,52.489174 112.483734,49.870911 110.408989,46.933960 
	C107.915367,43.404049 105.196869,42.711327 101.007744,45.539856 
M195.812698,75.347855 
	C192.974213,77.351967 190.141739,79.364685 187.294800,81.356712 
	C185.770142,82.423531 184.841782,83.540123 186.250366,85.426888 
	C187.431244,87.008644 188.705811,87.464066 190.506226,86.517532 
	C192.850708,85.284958 195.253693,84.164276 197.616379,82.965607 
	C203.420731,80.020874 209.216446,77.059067 215.161133,74.029991 
	C208.618912,66.724869 208.619278,66.725418 201.364868,71.636887 
	C199.719482,72.750870 198.070526,73.859627 195.812698,75.347855 
M90.358459,81.724915 
	C84.852715,78.036530 79.348190,74.346344 73.840904,70.660255 
	C67.720306,66.563660 66.802269,66.832855 62.489426,74.490517 
	C70.762451,78.614929 79.018890,82.725243 87.268509,86.849197 
	C88.757912,87.593735 89.774094,86.964851 90.697182,85.825706 
	C91.684204,84.607666 92.702347,83.428207 90.358459,81.724915 
M64.887268,147.517715 
	C63.700356,145.614807 63.062267,143.308823 60.814709,141.640045 
	C56.640633,150.790161 51.198051,159.281479 56.942863,170.508606 
	C60.249577,163.891800 63.293869,157.888809 66.240013,151.838043 
	C66.917191,150.447235 65.743988,149.328430 64.887268,147.517715 
M212.377213,146.794189 
	C211.596970,148.561188 209.912582,150.182404 210.966812,152.319046 
	C213.856888,158.176590 216.855072,163.980804 220.073349,170.324326 
	C225.507980,159.209595 220.395996,150.604050 216.028320,141.500076 
	C214.050980,142.815216 213.759079,144.762604 212.377213,146.794189 
M152.699509,48.771187 
	C154.178223,50.020042 155.021469,52.089069 157.742706,52.440556 
	C160.270905,49.134460 163.850525,46.395580 165.710602,41.395615 
	C158.306030,39.362198 151.440674,36.797733 143.095551,38.083946 
	C146.498611,41.870625 149.366760,45.062111 152.699509,48.771187 
M112.440948,110.827736 
	C110.696220,111.345367 108.924210,112.378426 107.211678,112.287781 
	C101.113831,111.965004 100.065109,115.617470 100.290321,120.439636 
	C100.365356,122.046242 99.396416,123.677032 100.612869,125.686600 
	C106.482498,123.343346 112.384254,120.987274 118.697891,118.466774 
	C116.719658,115.406982 117.530884,111.195007 112.440948,110.827736 
M122.843773,38.461994 
	C119.143845,39.643749 114.943810,39.347141 111.353645,42.289207 
	C113.661095,46.231525 116.111618,49.777958 118.136856,51.209000 
	C123.633080,46.475674 128.635727,42.167408 133.739517,37.772034 
	C130.139984,36.959480 126.905121,37.703613 122.843773,38.461994 
M183.094742,126.559723 
	C186.999847,126.364113 190.904968,126.168510 195.540863,125.936295 
	C191.393448,119.849388 187.629730,114.325623 183.901123,108.853409 
	C178.201385,111.822769 177.580170,121.995865 183.094742,126.559723 
M175.817505,115.148796 
	C175.655472,113.894646 175.171402,112.755524 173.743591,112.806412 
	C169.711334,112.950119 166.097702,111.319580 162.321915,109.950562 
	C160.755692,112.764893 159.020676,115.147301 158.811844,118.662018 
	C164.627396,120.936035 170.346848,123.172493 176.273651,125.490021 
	C177.146942,121.714485 176.440689,118.810699 175.817505,115.148796 
M97.466438,117.163017 
	C98.157051,113.291931 98.117592,109.836235 92.835289,109.093002 
	C89.239479,114.454643 85.686981,119.751709 82.129799,125.055756 
	C83.967964,126.490227 85.686958,125.950806 87.272026,126.075577 
	C96.173668,126.776283 96.175491,126.753105 97.466438,117.163017 
M166.659378,104.163155 
	C164.418289,102.962624 163.465927,100.466347 161.645599,98.785278 
	C159.772598,99.708893 159.216583,100.810608 160.274445,102.468491 
	C163.148880,106.973228 167.092804,109.698982 172.591110,109.654327 
	C178.598907,109.605522 182.521347,106.231606 185.119492,101.208321 
	C187.554474,96.500549 187.011230,91.870872 183.827179,87.634010 
	C182.663025,86.084900 181.285278,84.770561 179.326233,87.321487 
	C183.187805,92.410072 184.361771,97.888016 179.577225,102.993431 
	C176.134644,106.666862 171.801590,107.166832 166.659378,104.163155 
M94.268723,97.036407 
	C93.380676,93.115761 96.093010,90.205597 97.365486,87.060638 
	C95.824471,85.202614 94.572006,85.569405 93.508957,87.044106 
	C90.499054,91.219528 89.419693,95.666985 91.508659,100.648521 
	C93.762917,106.024231 98.667587,109.571388 104.139832,109.693848 
	C109.734009,109.819038 113.591080,107.005676 116.411430,102.501266 
	C117.441017,100.856918 117.489914,99.320213 114.716835,98.842514 
	C112.357285,103.270538 109.032913,106.760971 103.479736,106.011940 
	C98.780807,105.378128 95.744247,102.421272 94.268723,97.036407 
M120.229881,114.202934 
	C120.889183,115.630272 121.814186,117.179665 123.544388,116.417358 
	C127.058250,114.869186 131.186966,114.582214 134.539139,111.440811 
	C129.814804,108.332901 125.441589,105.455971 121.218704,102.677940 
	C115.696945,106.004219 118.219368,109.819206 120.229881,114.202934 
M150.554504,106.133568 
	C148.006119,108.086708 144.889954,109.349998 142.577179,112.255928 
	C146.113602,113.671227 149.186569,114.899391 152.258118,116.131157 
	C153.388489,116.584465 154.432404,116.772415 155.499939,115.843414 
	C159.352539,112.490799 159.706741,106.706108 156.208450,102.766083 
	C154.086288,102.990128 152.865921,104.807175 150.554504,106.133568 
M156.457031,66.894211 
	C158.403473,65.850433 160.994781,65.768112 162.062454,63.191849 
	C160.757446,61.244755 159.480194,59.380184 156.913696,58.626560 
	C153.350967,61.993298 150.648880,65.963173 147.090942,70.632034 
	C151.229263,70.304512 153.342361,68.320457 156.457031,66.894211 
M116.590759,60.986164 
	C115.455177,62.227669 113.887741,63.660477 116.438469,64.808479 
	C120.516808,66.644020 124.301949,69.240791 130.169769,70.641663 
	C126.690765,66.421173 124.113747,63.272148 121.510460,60.144997 
	C119.842323,58.141163 118.389641,58.986698 116.590759,60.986164 
z"/>
</svg>